PathFileType	4	(X/Y/Z)	C:/Users/opensim2020/Desktop/walking_exp_matlab/subject02_walking15_straight_02.trc	
DataRate	CameraRate	NumFrames	NumMarkers	Units	OrigDataRate	OrigDataStartFrame	OrigNumFrames	
100.00	100.00	8	42	mm	100.00	870	142	
Frame#	Time	LFHD			RFHD			LBHD			RBHD			C7			T10			CLAV			STRN			RBAK			LSHO			LUPA			LELB			LFRM			LWRA			LWRB			LFIN			RSHO			RUPA			RELB			RFRM			RWRA			RWRB			RFIN			LASI			RASI			LPSI			RPSI			LTHI			LKNE			LTIB			LANK			LHEE			LTOE			RTHI			RKNE			RTIB			RANK			RHEE			RTOE			*39			*40			*41			
		X1	Y1	Z1	X2	Y2	Z2	X3	Y3	Z3	X4	Y4	Z4	X5	Y5	Z5	X6	Y6	Z6	X7	Y7	Z7	X8	Y8	Z8	X9	Y9	Z9	X10	Y10	Z10	X11	Y11	Z11	X12	Y12	Z12	X13	Y13	Z13	X14	Y14	Z14	X15	Y15	Z15	X16	Y16	Z16	X17	Y17	Z17	X18	Y18	Z18	X19	Y19	Z19	X20	Y20	Z20	X21	Y21	Z21	X22	Y22	Z22	X23	Y23	Z23	X24	Y24	Z24	X25	Y25	Z25	X26	Y26	Z26	X27	Y27	Z27	X28	Y28	Z28	X29	Y29	Z29	X30	Y30	Z30	X31	Y31	Z31	X32	Y32	Z32	X33	Y33	Z33	X34	Y34	Z34	X35	Y35	Z35	X36	Y36	Z36	X37	Y37	Z37	X38	Y38	Z38	X39	Y39	Z39	X40	Y40	Z40	X41	Y41	Z41	X42	Y42	Z42	

1	0.000	-913.80017	970.32678	1710.08337	-1057.09546	988.44104	1697.39575	-892.09680	1096.06165	1629.75989	-1032.26550	1125.88123	1614.81421	-950.46985	1151.17737	1492.07092	-958.47943	1207.80627	1219.59766	-969.52032	1013.25824	1423.51331	-986.27014	964.25836	1250.78308	-998.58759	1223.06482	1318.00549	-790.09381	1043.19775	1465.88257	-712.55988	1003.93671	1270.65015	-706.82452	961.78699	1130.71265	-761.42688	874.71240	1042.21350	-867.09833	792.47845	1005.92596	-823.57367	795.93323	970.17432	-861.24933	745.52875	947.26294	-1145.70483	1122.64307	1459.86572	-1209.95740	1218.82764	1290.11194	-1234.00757	1248.66187	1148.60327	-1262.02234	1259.43689	1030.17749	-1259.89929	1243.28076	893.53217	-1275.06458	1296.69458	905.96332	-1286.96143	1284.01367	834.62671	-848.44684	995.26709	939.46301	-1103.33228	988.38831	953.03589	-931.30115	1198.06567	999.84729	-1043.85889	1204.63635	1007.63947	-810.64221	1137.09082	641.49677	-842.59515	1224.31165	460.85889	-833.26819	1366.05835	327.06100	-863.88495	1480.33228	131.82263	-908.12830	1529.97668	127.69789	-886.47131	1353.53796	39.01130	-1211.07068	985.40851	675.81647	-1192.45178	929.66595	472.68982	-1217.09192	924.36646	285.68842	-1213.09265	888.97699	95.88819	-1165.02576	915.35376	40.42466	-1216.06140	726.59613	51.48836	-986.96881	1085.21021	1774.33203	-3356.69775	2846.22241	1034.23608			 
2	0.010	-917.87646	956.97614	1710.18677	-1061.15051	974.08838	1697.86438	-897.08057	1082.99915	1629.76868	-1037.50989	1111.76465	1615.26416	-956.38574	1138.36438	1491.66113	-964.83252	1193.29761	1219.34143	-974.04480	999.67133	1423.99023	-990.67841	949.65332	1251.64722	-1004.99902	1208.56323	1317.49817	-794.87311	1031.87219	1466.17822	-716.96063	993.28351	1270.85522	-710.50409	951.41693	1130.65027	-763.79584	864.11115	1042.60217	-868.19861	779.96405	1006.44586	-825.05933	784.52844	970.32800	-862.10284	732.88629	948.11700	-1151.41296	1107.26917	1459.76245	-1216.69702	1202.27234	1289.60950	-1240.71997	1231.23315	1147.83508	-1268.48718	1240.55676	1029.13684	-1265.88794	1223.08875	892.66852	-1281.46057	1276.48926	904.62933	-1293.42200	1263.09534	833.55145	-853.86249	978.64099	939.55530	-1108.19238	972.39502	954.10590	-936.75366	1182.24756	999.50745	-1049.23596	1188.06482	1007.54053	-814.97803	1119.76062	641.04242	-844.66888	1204.58337	461.03418	-835.51776	1351.77588	332.80701	-864.19293	1472.68396	141.24622	-909.43823	1520.55383	139.79454	-886.18372	1352.92188	39.14526	-1214.39221	970.15948	677.03796	-1196.76721	913.92755	473.72385	-1222.01843	912.02728	287.41275	-1214.99316	880.29321	95.94778	-1167.64319	912.82208	42.08785	-1214.25159	720.91882	47.33345	-991.19592	1071.35400	1774.64954	-3356.84473	2845.99170	1034.25940			 
3	0.020	-921.54852	943.82300	1711.05127	-1065.19226	959.83600	1698.95349	-902.04602	1069.83899	1630.44861	-1042.73230	1097.68347	1616.25879	-962.30798	1125.42908	1491.88928	-970.68182	1178.67126	1219.48413	-978.54059	986.09863	1425.03015	-995.16913	934.95294	1252.90442	-1011.35785	1194.03174	1317.58167	-799.32672	1020.79169	1467.08752	-721.22852	983.29395	1271.42786	-714.00604	941.95856	1131.07690	-765.98914	853.70111	1042.51404	-868.51935	767.90784	1006.67950	-825.84454	773.55414	970.07263	-861.87164	721.21014	948.17126	-1156.98560	1092.05798	1460.24768	-1223.48840	1185.36572	1289.34009	-1247.55396	1213.30579	1147.28467	-1274.93140	1221.01929	1028.33411	-1271.62793	1202.17432	892.04742	-1287.85083	1255.37451	903.39197	-1299.84229	1241.02991	832.67865	-859.93762	962.13275	939.95276	-1113.18774	956.58203	955.73486	-941.71448	1166.26868	999.79260	-1054.51721	1171.50256	1008.50848	-819.40039	1101.00806	640.79089	-846.72791	1183.04089	461.08121	-838.57416	1335.50562	339.21167	-864.85394	1462.70325	151.58841	-911.43170	1508.37415	152.76866	-885.91656	1352.59021	39.06132	-1219.47485	957.29089	677.76080	-1198.87720	896.07599	476.23596	-1225.30420	897.89789	290.45526	-1214.19250	876.96808	96.53922	-1166.52148	911.65741	42.62908	-1219.69775	720.70746	45.22666	-996.47778	1057.64172	1775.74011	-3360.50244	2845.48779	1034.17798			 
4	0.030	-925.39349	930.44025	1712.25281	-1069.07739	945.60876	1700.48096	-907.02563	1056.63269	1631.61963	-1047.79626	1083.36047	1617.52197	-968.14398	1112.18970	1492.72473	-975.93451	1163.97705	1220.07190	-982.80365	972.60260	1426.54602	-999.43146	920.45428	1254.88452	-1017.74902	1179.51013	1318.29578	-803.74976	1009.33264	1468.35059	-725.22614	973.30133	1272.25562	-717.61932	932.87256	1131.55688	-767.89063	844.17584	1042.23438	-868.43408	756.63513	1006.11151	-826.19501	763.33356	969.36676	-860.85236	710.31042	947.47137	-1162.59290	1076.68359	1461.03088	-1230.31055	1167.93237	1289.29309	-1254.34497	1194.74683	1146.94702	-1281.41077	1200.80286	1027.87207	-1277.56628	1180.16699	891.90375	-1294.27515	1233.48181	902.47705	-1306.19336	1218.05518	832.15649	-866.32599	946.05560	940.72211	-1118.31580	940.98712	957.69293	-946.14240	1150.21313	1000.64624	-1059.55493	1155.99866	1010.63727	-823.51440	1081.62585	640.32397	-849.21875	1159.36914	460.67282	-842.31000	1316.31128	345.63861	-865.87036	1449.54272	162.23293	-913.95380	1492.76013	165.98692	-886.19470	1351.80042	39.23820	-1223.57300	946.06036	677.05090	-1199.67944	877.94562	478.62686	-1227.17798	884.86975	292.89539	-1212.28748	877.43365	97.83378	-1166.45618	911.16541	43.04563	-1217.10889	719.41937	44.66748	-1000.96356	1043.93835	1776.90894	-3357.47144	2846.00586	1034.45020			 
5	0.040	-929.22833	917.24261	1713.56812	-1073.11987	931.38245	1702.00806	-911.78394	1043.54602	1632.82642	-1052.78772	1069.27625	1619.05115	-973.74426	1098.54663	1494.27869	-980.78650	1148.97253	1220.44739	-986.99530	959.09222	1428.35669	-1003.73914	905.94690	1256.94727	-1024.17334	1165.04980	1319.21680	-808.06390	997.64386	1469.93152	-728.92407	963.68524	1273.30176	-721.20557	924.27344	1132.28735	-769.07843	835.60999	1041.91406	-867.58167	745.95947	1004.89502	-825.75201	754.38672	967.91772	-858.89496	700.38916	945.78754	-1167.82092	1061.46558	1462.37280	-1237.28357	1150.56299	1289.80383	-1261.09729	1175.71008	1146.96582	-1287.89014	1179.89099	1027.74255	-1283.27759	1157.63550	892.06262	-1300.82556	1210.77100	901.93457	-1312.45056	1194.01697	831.89758	-873.43890	930.38654	942.11292	-1123.43335	925.53052	959.77631	-950.16211	1134.43860	1001.84937	-1064.79675	1139.62915	1012.89490	-828.02124	1061.22668	639.80237	-852.18768	1134.31311	460.04269	-846.14087	1294.02258	351.30878	-867.28217	1433.14990	172.51331	-916.58179	1474.23926	179.11971	-887.17554	1350.55286	39.42123	-1225.60876	934.56354	675.85321	-1200.29724	861.69720	479.69080	-1228.82947	873.54535	294.08780	-1212.08215	874.08826	99.15663	-1166.26978	910.50830	43.52663	-1214.82520	716.79755	43.63671	-1005.43622	1030.17285	1778.44617						 
6	0.050	-933.09906	903.80255	1714.89893	-1076.91833	917.32452	1703.63293	-916.44183	1030.40625	1634.18835	-1057.51904	1055.21826	1620.49133	-979.04303	1084.79260	1496.03394	-985.77228	1135.19958	1221.66711	-991.01935	945.55377	1430.19446	-1007.94385	891.40527	1258.86743	-1030.56335	1150.66309	1320.53638	-812.36322	985.79559	1471.58459	-733.14423	954.08167	1274.48096	-724.78308	915.95093	1133.20874	-770.70825	827.58130	1041.06653	-866.38824	735.83118	1003.09308	-824.92474	746.29651	965.92755	-855.86591	691.38104	943.41302	-1172.65540	1045.99561	1463.89014	-1244.13171	1132.72498	1290.54285	-1267.81726	1156.13196	1147.27490	-1294.28418	1158.17993	1027.93213	-1289.01807	1134.10120	892.66534	-1307.43384	1187.06042	901.61584	-1318.66296	1168.99670	831.88196	-880.13007	915.24725	943.79150	-1128.50488	910.05530	961.75800	-953.96814	1119.24524	1003.27515	-1069.73767	1124.30664	1015.46985	-832.33966	1040.02380	638.47815	-855.53217	1107.82288	458.59485	-850.46198	1269.33655	355.77359	-868.49689	1413.57617	182.04601	-918.69183	1453.36572	192.34964	-888.80756	1347.19836	39.80337	-1227.56580	921.61420	675.06897	-1200.58960	847.63739	479.79099	-1229.36328	863.89490	294.72473	-1212.21570	871.15900	99.40590	-1165.72778	910.05304	43.63472	-1215.62659	716.43103	43.35471	-1009.82446	1016.49786	1779.85730	-3357.22974	2845.90625	1034.35669			 
7	0.060	-936.85522	890.40088	1716.52075	-1080.62000	903.28302	1705.19910	-920.98383	1016.88678	1635.48389	-1062.04883	1041.19824	1621.94214	-983.97742	1071.03345	1497.68774	-990.75092	1121.14246	1222.93591	-994.84998	931.78430	1432.06055	-1011.77386	877.11725	1261.08508	-1036.40381	1136.07117	1321.89075	-816.60602	973.80310	1473.34290	-737.13696	944.56451	1275.59558	-728.15436	908.12256	1134.27539	-771.55597	820.09235	1040.34875	-864.75604	726.30597	1000.61566	-823.41052	738.75958	963.66541	-852.68909	683.57458	939.93622	-1177.16858	1030.85522	1465.75183	-1250.62878	1114.51270	1291.42017	-1274.43530	1136.19116	1147.87805	-1300.66797	1135.84949	1028.41089	-1294.71948	1109.74622	893.63409	-1314.02869	1162.67480	901.66101	-1324.97302	1143.09656	832.17920	-886.98022	900.19940	945.44495	-1133.29907	894.91693	963.87592	-957.65906	1104.30298	1004.91852	-1074.23083	1109.13000	1017.78705	-836.56152	1018.39728	636.67920	-858.48138	1080.37720	456.97562	-854.68695	1242.93542	359.33685	-870.09082	1392.17529	191.69942	-920.95465	1431.77307	205.59787	-890.79730	1339.63379	44.33412	-1229.57104	906.28589	675.49664	-1201.89856	836.04932	479.19180	-1230.06726	857.05725	294.55338	-1211.90564	870.50574	99.19646	-1165.63208	910.07837	43.80021	-1215.37048	716.09045	43.19084	-1014.12061	1002.91248	1781.37976	-3356.89233	2846.09888	1034.36353			 
8	0.070	-940.59283	877.04553	1718.42773	-1084.29614	889.28156	1707.04126	-925.08716	1003.75214	1637.20300	-1066.32788	1027.11133	1623.42957	-988.60229	1057.61731	1499.25684	-995.67761	1107.14453	1224.54224	-998.40240	917.98560	1433.84094	-1015.24335	862.97455	1263.07556	-1041.80652	1121.57886	1323.54919	-820.61713	961.83386	1475.21533	-740.69073	935.34375	1277.04248	-731.42645	900.66528	1135.33936	-772.31604	813.20319	1039.39771	-862.16284	717.45599	997.45062	-821.75281	732.43518	960.67096	-848.66187	676.75714	935.84808	-1181.21484	1015.57031	1467.65881	-1257.08362	1096.36145	1292.62561	-1280.95679	1115.84521	1148.58948	-1306.91895	1112.95142	1029.09778	-1300.26794	1084.71973	894.76337	-1320.65759	1137.20984	901.80658	-1330.98352	1116.28528	832.65747	-891.95581	886.09644	947.64771	-1137.87878	880.28485	966.11475	-961.33191	1089.84985	1006.50061	-1078.38721	1094.28552	1019.84308	-840.72675	996.22302	634.49573	-861.06165	1052.62988	455.53094	-857.52521	1215.31372	361.96039	-873.59833	1370.34106	201.69672	-924.59698	1408.99548	217.85004	-891.11133	1326.25830	50.87955	-1232.00171	889.65588	677.47522	-1202.77368	826.63348	478.13412	-1230.32617	852.94330	293.38406	-1211.87756	869.64630	99.05862	-1165.51733	910.09363	43.89691	-1215.58008	716.05115	43.15464	-1018.28931	989.43756	1782.96387	-3360.45825	2845.28540	1034.41528			 
